# Blender v2.80 (sub 75) OBJ File: 'ieyugami.blend'
# www.blender.org
mtllib ieyugami.mtl
o Plane
v 14.184556 -0.082767 -7.783884
v 0.924774 1.289324 -7.780406
v 14.184557 -0.019708 0.216116
v 4.295378 1.418785 0.219593
v 14.287172 0.357357 0.233223
v 14.287170 0.287984 -7.766776
v 4.148591 3.106079 -7.760522
v 4.598296 2.192782 0.233224
v 14.287172 0.357357 0.233223
v 14.287170 0.287984 -7.766776
v 4.598296 2.192782 0.233224
v 14.184557 -0.082894 -2.848776
v 8.974752 0.000214 -7.783883
v 4.295378 1.343894 -2.845299
v 8.974753 0.000214 0.216117
v 14.287171 0.287170 -2.831668
v 9.442734 1.779433 -7.766775
v 4.598296 2.098346 -2.831667
v 9.442735 1.782493 0.233224
v 4.598296 2.192782 0.233224
v 14.287170 0.287984 -7.766776
v 14.287172 0.357357 0.233223
v 14.287171 0.287170 -2.831668
v 9.987237 2.843343 -7.766776
v 4.598296 2.098346 -2.831667
v 9.937737 2.800886 0.233224
v 9.442734 1.779433 -7.766775
v 9.442735 1.782493 0.233224
v 14.287171 0.287170 -2.831668
v 14.716055 0.083633 -2.831668
v 4.598296 2.098346 -2.831667
v 14.338202 0.326308 -2.817931
v 14.338202 0.327126 -7.753039
v -2.561712 0.000214 -9.408880
v 4.612528 2.144674 -2.829306
v 4.612528 2.265651 0.235586
v 9.987238 2.952686 0.233224
v 14.338202 0.396936 0.246960
v 14.743483 0.203436 -2.831668
v 14.716054 0.083633 -8.166776
v 9.987759 2.856267 -8.166776
v 4.058292 2.061710 -2.831667
v 4.058292 2.115209 0.633225
v 9.931677 2.885503 0.633224
v 14.716055 0.083633 0.633224
v 14.743483 0.203436 -8.166776
v 10.015186 2.947045 -8.166776
v 4.176018 3.193408 -7.760522
v 4.085720 2.144948 -2.831667
v 4.085720 2.235011 0.633225
v 9.959105 3.005306 0.633224
v 14.743483 0.203436 0.633224
v 9.959105 2.947277 -2.831668
v 17.635975 0.000000 -11.737356
v -7.301304 0.000000 -11.737354
v 17.635975 0.000000 7.081458
v -7.301302 0.000000 7.081460
v -0.571735 1.132973 -7.780406
v -0.571733 1.132973 0.219594
v -0.571734 1.132973 -2.845299
v 4.295378 0.754208 3.381278
v -2.078019 0.490402 3.381279
v 4.302900 -0.008111 3.381278
v -2.070498 -0.008111 3.381279
v 12.538657 1.176877 0.233224
v 12.588158 1.204082 -7.766776
v 12.588158 1.332834 0.233224
v 3.710862 0.000214 -9.408880
v 12.792688 1.137579 0.633224
v 12.792688 1.090602 -8.166776
v 12.820117 1.243060 0.633224
v 12.820116 1.168249 -8.166776
v 12.820116 1.175960 -2.831668
v 10.400076 4.279906 -7.772479
v 4.526691 4.184315 -7.739025
v 13.261087 2.335033 -7.772479
v 4.526691 3.603643 -2.831667
v 10.400076 4.301607 -2.831668
v 13.261087 2.342083 -2.831668
v 0.924775 1.289324 -2.845299
v 1.999298 1.070783 0.219594
v 2.140743 0.617906 3.417240
v 2.012351 -0.008111 3.381279
v 14.287170 0.333258 -7.435766
v 14.338202 0.370188 -7.422029
v 14.716054 0.083633 -7.808937
v 14.743483 0.203436 -7.808937
v 12.820116 1.174298 -7.808938
v 10.011425 2.942391 -7.780045
v 10.397985 4.362525 -7.890536
v 4.180144 4.155078 -7.855122
v 13.426787 2.296954 -7.890536
v 4.180144 3.496038 -2.659961
v 10.397985 4.378345 -2.659961
v 13.426788 2.300908 -2.659962
v -3.945114 0.387273 -2.840519
v -3.945114 0.000214 -2.840519
v 3.710862 0.480984 -9.408880
v -2.561712 0.480984 -9.408880
v 10.432257 4.573634 -7.890536
v 4.214415 4.280426 -7.855122
v 13.461058 2.464768 -7.890536
v 4.214416 3.704837 -2.659961
v 10.432257 4.588548 -2.659961
v 13.461059 2.468397 -2.659962
v -0.645926 0.776720 1.733405
v -1.364576 1.058775 0.325030
v -0.671552 1.367903 1.864878
v -1.390203 1.649957 0.456503
v 1.799506 1.738908 0.678274
v 1.825132 1.147725 0.546802
v 1.106482 1.429780 -0.861574
v 1.080854 2.020962 -0.730101
v 2.749912 1.809914 0.221888
v 2.775539 1.290420 0.090415
v 2.056889 1.572475 -1.317959
v 2.031262 2.163656 -1.186487
v 3.510238 1.746997 -0.143221
v 3.535865 1.383775 -0.274694
v 2.817216 1.683454 -1.683068
v 2.791588 2.225313 -1.551596
v 0.723940 2.095629 -3.930205
v 0.698313 2.686810 -3.798733
v 1.484265 2.209784 -4.295315
v 1.458639 2.800966 -4.163842
v 2.161169 2.428856 -5.398038
v 2.732413 1.993209 -8.981916
v -3.118004 0.604089 -6.017685
v -2.546759 0.168441 -9.601564
v -3.270613 1.073228 -6.099039
v 2.008557 2.897995 -5.479392
v 2.579802 2.462348 -9.063271
v -2.699371 0.637580 -9.682917
vt 0.647131 0.921896
vt 0.653867 0.911294
vt 0.649801 0.924051
vt 0.994767 0.964614
vt 0.989700 0.833555
vt 0.992479 0.964643
vt 0.992969 0.178132
vt 0.994767 0.047067
vt 0.990682 0.178080
vt 0.874047 0.194625
vt 0.876446 0.020734
vt 0.878711 0.194582
vt 0.643016 0.608506
vt 0.659254 0.624471
vt 0.653536 0.632746
vt 0.656149 0.783361
vt 0.658725 0.656065
vt 0.678159 0.707653
vt 0.643710 0.502826
vt 0.642910 0.387203
vt 0.690199 0.502315
vt 0.665620 0.565786
vt 0.644861 0.608501
vt 0.650096 0.911269
vt 0.707068 0.784391
vt 0.988066 0.702453
vt 0.991007 0.571374
vt 0.990354 0.702464
vt 0.656503 0.656039
vt 0.988230 0.440256
vt 0.992315 0.309212
vt 0.990517 0.440287
vt 0.982759 0.331709
vt 0.971170 0.173572
vt 0.983287 0.173613
vt 0.658666 0.910759
vt 0.683250 0.707755
vt 0.990027 0.309181
vt 0.919933 0.647609
vt 0.895684 0.772960
vt 0.905962 0.647360
vt 0.941948 0.777059
vt 0.883884 0.910316
vt 0.991988 0.833546
vt 0.943926 0.317414
vt 0.891751 0.193973
vt 0.928696 0.193823
vt 0.917307 0.445995
vt 0.897545 0.319859
vt 0.988720 0.571362
vt 0.904342 0.522987
vt 0.903336 0.445746
vt 0.918313 0.523236
vt 0.616055 0.827560
vt 0.593293 0.971977
vt 0.592780 0.834781
vt 0.892156 0.116726
vt 0.929101 0.116577
vt 0.473374 0.110504
vt 0.528535 0.028215
vt 0.532888 0.110416
vt 0.547235 0.406963
vt 0.482048 0.420739
vt 0.472796 0.406966
vt 0.472768 0.745412
vt 0.361570 0.731282
vt 0.482046 0.731640
vt 0.667018 0.971839
vt 0.666756 0.612171
vt 0.666212 0.624493
vt 0.660730 0.632871
vt 0.667004 0.656174
vt 0.562070 0.424885
vt 0.480187 0.424888
vt 0.480169 0.727493
vt 0.195051 0.498362
vt 0.199340 0.700568
vt 0.195052 0.702082
vt 0.566647 0.727459
vt 0.562100 0.715162
vt 0.566646 0.715161
vt 0.583329 0.438638
vt 0.566623 0.544025
vt 0.566616 0.424885
vt 0.213096 0.725482
vt 0.318500 0.705116
vt 0.318500 0.725482
vt 0.583352 0.713710
vt 0.583352 0.702331
vt 0.181277 0.681729
vt 0.318500 0.496848
vt 0.199340 0.496848
vt 0.358390 0.544031
vt 0.480191 0.544027
vt 0.199340 0.705116
vt 0.318500 0.700568
vt 0.288631 0.370366
vt 0.031283 0.029348
vt 0.288631 0.029348
vt 0.451288 0.313093
vt 0.410317 0.189774
vt 0.448202 0.188833
vt 0.408401 0.112604
vt 0.474230 0.028768
vt 0.969290 0.664571
vt 0.982616 0.767568
vt 0.966837 0.770923
vt 0.983055 0.825296
vt 0.983751 0.967521
vt 0.963840 0.825262
vt 0.656176 0.093802
vt 0.480186 0.715173
vt 0.562077 0.544026
vt 0.562102 0.727459
vt 0.563968 0.731616
vt 0.360247 0.420744
vt 0.358386 0.424892
vt 0.547245 0.745421
vt 0.362069 0.406970
vt 0.712159 0.784495
vt 0.649090 0.608457
vt 0.033083 0.693424
vt 0.156278 0.687263
vt 0.154905 0.693425
vt 0.031132 0.775359
vt 0.034608 0.979346
vt 0.029982 0.979078
vt 0.871782 0.020777
vt 0.811212 0.195186
vt 0.809666 0.022118
vt 0.798193 0.389288
vt 0.782791 0.505426
vt 0.735358 0.389849
vt 0.407187 0.834781
vt 0.407927 0.974904
vt 0.533320 0.187573
vt 0.359682 0.727144
vt 0.359617 0.713822
vt 0.452598 0.570561
vt 0.364379 0.695279
vt 0.363318 0.570558
vt 0.583335 0.544024
vt 0.799016 0.794060
vt 0.784348 0.679674
vt 0.847195 0.680399
vt 0.355127 0.727157
vt 0.354616 0.713379
vt 0.874050 0.987618
vt 0.804143 0.793689
vt 0.878711 0.987480
vt 0.811964 0.989992
vt 0.845626 0.504865
vt 0.156279 0.498536
vt 0.029080 0.502957
vt 0.027311 0.498536
vt 0.029080 0.682841
vt 0.158047 0.682841
vt 0.033083 0.494111
vt 0.018285 0.676936
vt 0.024318 0.502957
vt 0.024318 0.682841
vt 0.229634 0.775434
vt 0.223325 0.979371
vt 0.223324 0.763704
vt 0.212997 0.748773
vt 0.040238 0.760711
vt 0.044230 0.748774
vt 0.972438 0.500860
vt 0.970641 0.331669
vt 0.656176 0.326628
vt 0.520890 0.359745
vt 0.362918 0.357798
vt 0.413403 0.314034
vt 0.983751 0.034763
vt 0.158047 0.502957
vt 0.040238 0.765473
vt 0.218903 0.981139
vt 0.039021 0.981140
vt 0.218902 0.765473
vt 0.593134 0.983280
vt 0.323326 0.191814
vt 0.981855 0.664668
vt 0.645149 0.273397
vt 0.635003 0.246514
vt 0.645149 0.246514
vt 0.678230 0.153761
vt 0.696038 0.180643
vt 0.678230 0.180643
vt 0.631114 0.208361
vt 0.677413 0.235243
vt 0.631114 0.235244
vt 0.631931 0.180643
vt 0.608642 0.263669
vt 0.618787 0.217370
vt 0.618787 0.263669
vt 0.631931 0.190789
vt 0.678230 0.190788
vt 0.608642 0.199562
vt 0.618787 0.149701
vt 0.618787 0.199562
vt 0.608642 0.217370
vt 0.696038 0.190788
vt 0.677413 0.208361
vt 0.695221 0.235243
vt 0.724722 0.259385
vt 0.734868 0.286267
vt 0.724722 0.286267
vt 0.710284 0.190789
vt 0.695221 0.208361
vt 0.709467 0.235243
vt 0.710284 0.153761
vt 0.710284 0.180643
vt 0.669392 0.274130
vt 0.679537 0.259884
vt 0.679537 0.274130
vt 0.696038 0.153761
vt 0.710284 0.103900
vt 0.709467 0.285104
vt 0.695221 0.285104
vt 0.734868 0.259385
vt 0.724723 0.209524
vt 0.734868 0.209524
vt 0.388035 0.931862
vt 0.296507 0.874363
vt 0.388078 0.874273
vt 0.392085 0.865977
vt 0.296594 0.803703
vt 0.392161 0.803820
vt 0.296604 0.795201
vt 0.234351 0.874287
vt 0.296518 0.865860
vt 0.391743 0.923747
vt 0.651080 0.632711
vt 0.663817 0.656167
vt 0.943926 0.982527
vt 0.563930 0.420737
vt 0.361793 0.745073
vt 0.673364 0.964785
vt 0.181276 0.496529
vt 0.031283 0.370366
vt 0.367798 0.032464
vt 0.027311 0.687262
vt 0.035825 0.763679
vt 0.452598 0.696008
vt 0.736618 0.795129
vt 0.154905 0.494111
vt 0.018284 0.507018
vt 0.229634 0.979152
vt 0.218902 0.760711
vt 0.982193 0.500892
vt 0.361789 0.356461
vt 0.365671 0.033758
vt 0.635003 0.273397
vt 0.631931 0.153761
vt 0.608642 0.149701
vt 0.709467 0.208361
vt 0.669392 0.259884
vt 0.696038 0.103900
vt 0.298029 0.932613
vt 0.392171 0.795317
vt 0.234361 0.865785
vn 0.0000 0.0000 1.0000
vn -0.9486 0.3126 0.0489
vn 1.0000 0.0000 -0.0000
vn -0.0010 0.0005 -1.0000
vn 0.0000 -0.0000 -1.0000
vn 0.0038 -0.0331 0.9994
vn 0.0131 0.0425 -0.9990
vn 0.0012 0.0093 -1.0000
vn -0.0041 -0.0160 0.9999
vn -0.0000 -0.0096 1.0000
vn 0.9648 -0.2628 0.0060
vn 0.9636 -0.2672 -0.0000
vn 0.0003 -0.0189 0.9998
vn -0.9279 0.3727 -0.0091
vn -0.1467 0.9680 0.2035
vn -0.4621 -0.8669 -0.1869
vn -0.5324 -0.8458 -0.0323
vn -0.9557 0.2941 -0.0091
vn 0.5640 -0.8189 0.1065
vn 0.6097 -0.7924 0.0183
vn 0.9748 -0.2232 0.0000
vn -0.6383 -0.7698 0.0000
vn 0.1478 -0.9883 0.0390
vn -0.5269 -0.8428 0.1096
vn 0.1277 -0.9734 -0.1903
vn -0.1300 0.9914 -0.0166
vn 0.5263 0.8501 -0.0165
vn -0.9498 0.3130 -0.0048
vn 0.0000 1.0000 0.0000
vn -0.1039 0.9946 0.0000
vn 0.0241 0.9977 0.0627
vn 0.0239 0.9900 0.1392
vn -0.0068 -0.0560 0.9984
vn 0.5609 0.0055 0.8279
vn 0.2846 0.9382 0.1972
vn 0.4506 0.8927 0.0000
vn 0.4512 0.8924 0.0000
vn -0.4616 -0.8817 0.0973
vn -0.5167 -0.8297 -0.2111
vn 0.1082 0.2007 -0.9737
vn -0.5314 -0.7758 0.3403
vn 0.0101 -0.8192 -0.5735
vn -0.9422 0.3326 0.0394
vn -0.4844 0.8576 0.1728
vn 0.0167 0.0002 0.9999
vn -0.1498 0.9884 -0.0242
vn 0.5328 0.8461 0.0154
vn 0.5264 0.8502 0.0047
vn 0.4484 0.8938 0.0000
vn -0.5406 -0.8413 -0.0080
vn 0.6098 -0.7925 -0.0076
vn 0.0077 0.0285 -0.9996
vn -0.9712 0.2381 0.0064
vn -0.0011 0.0003 -1.0000
vn -0.0024 0.0225 -0.9997
vn 0.9348 -0.3551 0.0001
vn -0.4990 -0.7317 -0.4644
vn -0.2419 -0.9703 0.0007
vn 0.1331 -0.9383 -0.3193
vn 0.1222 -0.9856 -0.1166
vn -0.9785 0.0000 -0.2061
vn 0.1543 0.9644 -0.2146
vn -0.1003 0.9599 -0.2618
vn 0.2950 0.0000 -0.9555
vn 0.5714 0.8207 -0.0006
vn -0.0471 0.9989 -0.0028
vn 0.9797 -0.2005 0.0001
vn -0.9642 0.2636 0.0292
vn -0.0057 0.0009 -1.0000
vn 0.0035 -0.0520 0.9986
vn -0.2158 0.9764 0.0000
vn -0.9576 -0.0144 0.2876
vn -0.8933 -0.1341 0.4290
vn 0.0423 -0.9753 -0.2169
vn -0.0423 0.9753 0.2169
vn -0.4475 0.1756 -0.8769
vn 0.4475 -0.1756 0.8769
vn 0.4368 -0.1772 0.8820
vn 0.8882 0.2105 -0.4084
vn 0.4099 -0.2047 0.8889
vn 0.0309 0.9730 0.2286
vn 0.0162 -0.9763 -0.2160
vn 0.0386 -0.9756 -0.2162
vn 0.8944 0.1337 -0.4269
vn 0.3052 -0.9383 0.1627
vn -0.3052 0.9383 -0.1627
vn 0.1563 -0.1192 -0.9805
vn -0.1563 0.1192 0.9805
vn -0.9394 -0.3247 -0.1103
vn 0.9394 0.3247 0.1103
vn -0.9530 0.2993 0.0462
vn 0.0005 -0.0001 1.0000
vn -0.1116 -0.1944 0.9746
vn 0.0002 0.0096 -1.0000
vn 0.0010 0.0091 -1.0000
vn -0.0008 -0.0094 1.0000
vn -0.0123 -0.0420 0.9990
vn 0.9636 -0.2674 0.0055
vn 0.9638 -0.2667 -0.0000
vn 0.0013 -0.0186 0.9998
vn -0.9311 0.3646 -0.0112
vn -0.0601 0.9880 0.1426
vn -0.4672 -0.8525 -0.2345
vn -0.5330 -0.8457 -0.0280
vn -0.9814 0.1919 -0.0076
vn 0.5862 -0.8027 0.1098
vn 0.6054 -0.7957 0.0182
vn -0.5398 -0.8416 0.0194
vn 0.2718 -0.9622 0.0149
vn -0.5417 -0.8406 0.0000
vn 0.1253 -0.9811 -0.1474
vn -0.1353 0.9905 -0.0257
vn 0.5244 0.8514 -0.0143
vn -0.9748 0.2232 -0.0058
vn -0.0313 0.9823 0.1847
vn 0.4512 0.8924 -0.0003
vn 0.4754 0.8796 -0.0170
vn -0.4480 -0.8937 0.0245
vn -0.5156 -0.8439 -0.1483
vn -0.5342 -0.7788 0.3287
vn 0.0338 -0.9884 0.1480
vn -0.9563 0.2891 0.0440
vn -0.2393 0.9709 0.0000
vn 0.0000 -0.0573 0.9984
vn -0.0161 0.9969 0.0767
vn 0.5355 0.8444 -0.0143
vn 0.5327 0.8463 -0.0003
vn 0.4506 0.8926 -0.0151
vn -0.6043 -0.7968 0.0000
vn 0.5877 -0.8091 -0.0081
vn 0.0032 0.0047 -1.0000
vn -0.9572 0.2892 -0.0058
vn -0.0089 -0.1306 -0.9914
vn -0.0058 0.0073 -1.0000
vn 0.9354 -0.3537 0.0005
vn -0.4887 -0.7189 -0.4944
vn -0.2230 -0.9748 0.0014
vn 0.1078 -0.9072 0.4067
vn 0.2386 -0.9634 -0.1222
vn 0.0000 0.8957 -0.4446
vn 0.5735 0.8192 -0.0023
vn -0.1399 0.9841 0.1090
vn 0.9798 -0.2001 0.0002
vn -0.9866 0.1619 0.0205
vn -0.0057 0.0016 -1.0000
vn -0.2777 0.9596 -0.0448
vn -0.2718 0.9601 0.0656
vn -0.9575 0.0000 0.2885
vn 0.4483 -0.1985 0.8716
vn 0.0359 0.9734 0.2262
vn 0.9004 0.1423 -0.4111
vn 0.4434 -0.2773 0.8524
vn 0.1886 0.9552 0.2282
vn 0.0390 -0.9758 -0.2153
vn 0.0194 0.9784 0.2057
vn 0.8928 0.1456 -0.4262
g Plane_Plane_Material.001
usemtl Material.001
s off
f 31/1/1 11/2/1 25/3/1
f 31/4/1 8/5/1 18/6/1
f 27/7/1 7/8/1 17/9/1
f 49/10/2 7/11/2 42/12/2
f 21/13/3 84/14/3 23/15/3
f 28/16/1 9/17/1 65/18/1
f 27/19/4 7/20/4 24/21/4
f 27/19/5 66/22/5 10/23/5
f 20/24/1 26/25/1 11/2/1
f 19/26/1 22/27/1 28/28/1
f 22/29/1 23/15/1 9/17/1
f 16/30/1 21/31/1 29/32/1
f 34/33/5 98/34/5 68/35/5
f 26/25/6 36/36/6 11/2/6
f 9/17/1 67/37/1 65/18/1
f 21/31/1 17/9/1 6/38/1
f 1/39/7 27/40/7 21/41/7
f 13/42/8 7/43/8 27/40/8
f 20/44/1 19/26/1 8/5/1
f 15/45/9 20/46/9 4/47/9
f 3/48/10 28/49/10 15/45/10
f 22/27/1 16/30/1 5/50/1
f 3/48/11 29/51/11 22/52/11
f 12/53/12 21/41/12 29/51/12
f 14/54/13 42/55/13 80/56/13
f 4/47/14 31/57/14 14/58/14
f 81/59/15 61/60/15 4/61/15
f 38/62/16 69/63/16 67/64/16
f 66/65/17 41/66/17 70/67/17
f 11/2/18 35/68/18 25/3/18
f 84/14/19 33/69/19 85/70/19
f 9/17/20 32/71/20 38/72/20
f 69/63/1 52/73/1 71/74/1
f 41/66/5 72/75/5 70/67/5
f 44/76/1 50/77/1 43/78/1
f 40/79/21 87/80/21 86/81/21
f 38/82/22 30/83/22 45/84/22
f 36/85/23 42/86/23 35/87/23
f 33/88/24 86/81/24 85/89/24
f 36/90/25 44/76/25 43/78/25
f 53/91/26 50/77/26 51/92/26
f 53/93/27 71/74/27 73/94/27
f 30/83/21 52/73/21 45/84/21
f 43/95/28 49/96/28 42/86/28
f 55/97/29 56/98/29 54/99/29
f 2/100/30 60/101/30 80/102/30
f 80/102/31 59/103/31 81/59/31
f 59/103/32 82/104/32 81/59/32
f 62/105/33 83/106/33 82/107/33
f 63/108/34 15/109/34 61/110/34
f 4/61/35 61/60/35 15/111/35
f 88/112/36 39/113/36 87/80/36
f 73/94/37 52/73/37 39/113/37
f 70/67/5 46/114/5 40/115/5
f 44/116/1 71/74/1 51/117/1
f 33/118/38 70/67/38 40/115/38
f 67/64/39 44/116/39 37/119/39
f 26/25/1 67/37/1 37/120/1
f 10/23/40 66/22/40 33/121/40
f 79/122/41 94/123/41 78/124/41
f 75/125/42 90/126/42 74/127/42
f 48/128/43 77/129/43 75/130/43
f 53/131/1 79/132/1 78/133/1
f 53/131/1 77/129/1 49/10/1
f 2/134/44 42/55/44 7/135/44
f 82/107/45 63/108/45 61/110/45
f 14/136/46 81/59/46 4/61/46
f 88/112/47 47/137/47 89/138/47
f 73/139/48 89/140/48 53/141/48
f 72/75/49 87/80/49 46/114/49
f 85/89/50 30/83/50 32/142/50
f 86/81/21 39/113/21 30/83/21
f 23/15/51 85/70/51 32/71/51
f 89/143/52 76/144/52 88/145/52
f 89/138/53 41/146/53 24/147/53
f 48/148/54 24/149/54 7/150/54
f 75/151/55 89/143/55 48/148/55
f 76/144/56 73/152/56 88/145/56
f 90/153/5 102/154/5 92/155/5
f 94/123/1 105/156/1 104/157/1
f 76/158/57 90/153/57 92/155/57
f 79/159/58 92/160/58 95/161/58
f 77/162/59 94/163/59 93/164/59
f 77/165/60 91/166/60 75/167/60
f 34/33/61 96/168/61 99/169/61
f 13/170/62 98/171/62 2/100/62
f 2/100/63 99/172/63 58/173/63
f 13/174/64 68/35/64 98/34/64
f 100/175/65 105/156/65 102/154/65
f 101/176/66 104/177/66 100/178/66
f 95/161/67 102/154/67 105/156/67
f 94/163/1 103/179/1 93/164/1
f 91/166/68 103/179/68 101/176/68
f 90/126/69 101/176/69 100/178/69
f 31/1/70 35/180/70 42/55/70
f 58/173/71 96/181/71 60/101/71
f 96/181/71 59/103/71 60/101/71
f 96/168/72 64/182/72 62/105/72
f 106/183/73 109/184/73 107/185/73
f 112/186/74 115/187/74 111/188/74
f 108/189/75 113/190/75 109/191/75
f 106/192/74 112/186/74 111/188/74
f 109/193/76 112/194/76 107/195/76
f 108/196/77 111/188/77 110/197/77
f 117/198/73 122/199/73 116/200/73
f 113/201/76 116/200/76 112/194/76
f 111/188/78 114/202/78 110/197/78
f 110/203/75 117/204/75 113/190/75
f 120/205/79 118/206/79 119/207/79
f 115/187/80 118/208/80 114/202/80
f 114/209/81 121/210/81 117/204/81
f 115/187/82 120/211/82 119/212/82
f 123/213/76 124/214/76 122/215/76
f 116/216/83 124/217/83 120/211/83
f 117/204/75 125/218/75 123/219/75
f 121/220/84 124/221/84 125/222/84
f 126/223/85 129/224/85 127/225/85
f 132/226/86 130/227/86 131/228/86
f 129/224/87 132/226/87 127/225/87
f 128/229/88 131/228/88 130/227/88
f 128/230/89 133/231/89 129/224/89
f 127/225/90 131/232/90 126/223/90
f 31/1/1 20/24/1 11/2/1
f 31/4/1 20/44/1 8/5/1
f 49/10/91 48/128/91 7/11/91
f 21/13/1 10/23/1 84/14/1
f 23/15/1 29/233/1 21/13/1
f 28/16/1 22/29/1 9/17/1
f 65/18/1 26/25/1 28/16/1
f 10/23/1 21/13/1 27/19/1
f 27/19/5 24/21/5 66/22/5
f 20/24/1 28/16/1 26/25/1
f 19/26/1 5/50/1 22/27/1
f 22/29/1 29/233/1 23/15/1
f 16/30/1 6/38/1 21/31/1
f 34/33/5 99/169/5 98/34/5
f 26/25/92 37/120/92 36/36/92
f 9/17/93 38/234/93 67/37/93
f 21/31/1 27/7/1 17/9/1
f 1/39/94 13/42/94 27/40/94
f 13/42/95 2/235/95 7/43/95
f 20/44/1 28/28/1 19/26/1
f 15/45/96 28/49/96 20/46/96
f 3/48/97 22/52/97 28/49/97
f 22/27/1 29/32/1 16/30/1
f 3/48/98 12/53/98 29/51/98
f 12/53/99 1/39/99 21/41/99
f 14/54/100 31/1/100 42/55/100
f 4/47/101 20/46/101 31/57/101
f 81/59/102 82/104/102 61/60/102
f 38/62/103 45/236/103 69/63/103
f 66/65/104 24/237/104 41/66/104
f 11/2/105 36/238/105 35/68/105
f 84/14/106 10/23/106 33/69/106
f 9/17/107 23/15/107 32/71/107
f 69/63/1 45/236/1 52/73/1
f 41/66/5 47/137/5 72/75/5
f 44/76/1 51/92/1 50/77/1
f 40/79/21 46/114/21 87/80/21
f 38/82/108 32/142/108 30/83/108
f 36/85/109 43/95/109 42/86/109
f 33/88/110 40/79/110 86/81/110
f 36/90/111 37/239/111 44/76/111
f 53/91/112 49/96/112 50/77/112
f 53/93/113 51/117/113 71/74/113
f 30/83/21 39/113/21 52/73/21
f 43/95/114 50/77/114 49/96/114
f 55/97/29 57/240/29 56/98/29
f 2/100/30 58/173/30 60/101/30
f 80/102/30 60/101/30 59/103/30
f 59/103/115 62/241/115 82/104/115
f 62/105/1 64/182/1 83/106/1
f 88/112/116 73/94/116 39/113/116
f 73/94/117 71/74/117 52/73/117
f 70/67/5 72/75/5 46/114/5
f 44/116/1 69/63/1 71/74/1
f 33/118/118 66/65/118 70/67/118
f 67/64/119 69/63/119 44/116/119
f 26/25/1 65/18/1 67/37/1
f 79/122/120 95/242/120 94/123/120
f 75/125/121 91/243/121 90/126/121
f 48/128/122 49/10/122 77/129/122
f 53/131/1 73/152/1 79/132/1
f 53/131/1 78/133/1 77/129/1
f 2/134/123 80/56/123 42/55/123
f 82/107/124 83/106/124 63/108/124
f 14/136/125 80/102/125 81/59/125
f 88/112/126 72/75/126 47/137/126
f 73/139/127 88/244/127 89/140/127
f 72/75/128 88/112/128 87/80/128
f 85/89/129 86/81/129 30/83/129
f 86/81/21 87/80/21 39/113/21
f 23/15/130 84/14/130 85/70/130
f 89/143/131 74/245/131 76/144/131
f 89/138/132 47/137/132 41/146/132
f 48/148/133 89/143/133 24/149/133
f 75/151/134 74/245/134 89/143/134
f 76/144/135 79/132/135 73/152/135
f 90/153/5 100/175/5 102/154/5
f 94/123/1 95/242/1 105/156/1
f 76/158/136 74/246/136 90/153/136
f 79/159/137 76/247/137 92/160/137
f 77/162/138 78/248/138 94/163/138
f 77/165/139 93/249/139 91/166/139
f 34/33/61 97/250/61 96/168/61
f 2/100/140 98/171/140 99/172/140
f 100/175/141 104/157/141 105/156/141
f 101/176/142 103/179/142 104/177/142
f 95/161/143 92/160/143 102/154/143
f 94/163/1 104/177/1 103/179/1
f 91/166/144 93/249/144 103/179/144
f 90/126/145 91/243/145 101/176/145
f 31/1/1 25/3/1 35/180/1
f 58/173/146 99/251/146 96/181/146
f 96/181/147 62/252/147 59/103/147
f 96/168/148 97/250/148 64/182/148
f 106/183/73 108/253/73 109/184/73
f 112/186/74 116/216/74 115/187/74
f 108/189/75 110/203/75 113/190/75
f 106/192/74 107/254/74 112/186/74
f 109/193/76 113/201/76 112/194/76
f 108/196/77 106/192/77 111/188/77
f 117/198/73 123/255/73 122/199/73
f 113/201/76 117/198/76 116/200/76
f 111/188/149 115/187/149 114/202/149
f 110/203/150 114/209/150 117/204/150
f 120/205/151 121/220/151 118/206/151
f 115/187/152 119/212/152 118/208/152
f 114/209/153 118/256/153 121/210/153
f 115/187/154 116/216/154 120/211/154
f 123/213/76 125/257/76 124/214/76
f 116/216/74 122/258/74 124/217/74
f 117/204/155 121/210/155 125/218/155
f 121/220/156 120/205/156 124/221/156
f 126/223/85 128/259/85 129/224/85
f 132/226/86 133/231/86 130/227/86
f 129/224/87 133/231/87 132/226/87
f 128/229/88 126/260/88 131/228/88
f 128/230/89 130/261/89 133/231/89
f 127/225/90 132/226/90 131/232/90
