# Blender v2.80 (sub 75) OBJ File: 'ieyugami.blend'
# www.blender.org
mtllib ieyugami.mtl
o Plane
v 14.184556 -7.783884 2.082767
v 0.924774 -7.780406 0.710677
v 14.184557 0.216116 2.019708
v 4.295378 0.219593 0.581215
v 14.287172 0.233223 1.642642
v 14.287170 -7.766776 1.712016
v 4.148591 -7.760522 -1.106078
v 4.598296 0.233224 -0.192782
v 14.287172 0.233223 1.642642
v 14.287170 -7.766776 1.712016
v 4.598296 0.233224 -0.192782
v 14.184557 -2.848776 2.082894
v 8.974752 -7.783883 1.999787
v 4.295378 -2.845299 0.656106
v 8.974753 0.216117 1.999786
v 14.287171 -2.831668 1.712830
v 9.442734 -7.766775 0.220567
v 4.598296 -2.831667 -0.098346
v 9.442735 0.233224 0.217507
v 4.598296 0.233224 -0.192782
v 14.287170 -7.766776 1.712016
v 14.287172 0.233223 1.642642
v 14.287171 -2.831668 1.712830
v 9.987237 -7.766776 -0.843343
v 4.598296 -2.831667 -0.098346
v 9.937737 0.233224 -0.800886
v 9.442734 -7.766775 0.220567
v 9.442735 0.233224 0.217507
v 14.287171 -2.831668 1.712830
v 14.716055 -2.831668 1.916367
v 4.598296 -2.831667 -0.098346
v 14.338202 -2.817931 1.673693
v 14.338202 -7.753039 1.672874
v -2.561712 -9.408880 1.999787
v 4.612528 -2.829306 -0.144674
v 4.612528 0.235586 -0.265651
v 9.987238 0.233224 -0.952686
v 14.338202 0.246960 1.603064
v 14.743483 -2.831668 1.796564
v 14.716054 -8.166776 1.916367
v 9.987759 -8.166776 -0.856267
v 4.058292 -2.831667 -0.061710
v 4.058292 0.633225 -0.115209
v 9.931677 0.633223 -0.885503
v 14.716055 0.633224 1.916367
v 14.743483 -8.166776 1.796565
v 10.015186 -8.166776 -0.947045
v 4.176018 -7.760522 -1.193407
v 4.085720 -2.831667 -0.144948
v 4.085720 0.633225 -0.235011
v 9.959105 0.633223 -1.005306
v 14.743483 0.633224 1.796564
v 9.959105 -2.831668 -0.947277
v 17.635975 -11.737356 2.000000
v -7.301304 -11.737354 2.000000
v 17.635975 7.081458 2.000000
v -7.301302 7.081460 2.000000
v -0.571735 -7.780406 0.867027
v -0.571733 0.219594 0.867027
v -0.571734 -2.845299 0.867027
v 4.295378 3.381278 1.245792
v -2.078019 3.381279 1.509598
v 4.302900 3.381278 2.008111
v -2.070498 3.381279 2.008111
v 12.538657 0.233224 0.823123
v 12.588158 -7.766776 0.795919
v 12.588158 0.233224 0.667166
v 3.710862 -9.408880 1.999787
v 12.792688 0.633223 0.862421
v 12.792688 -8.166776 0.909398
v 12.820117 0.633223 0.756940
v 12.820116 -8.166776 0.831751
v 12.820116 -2.831668 0.824041
v 10.400076 -7.772479 -2.279905
v 4.526691 -7.739025 -2.184315
v 13.261087 -7.772479 -0.335033
v 4.526691 -2.831667 -1.603643
v 10.400076 -2.831668 -2.301607
v 13.261087 -2.831668 -0.342083
v 0.924775 -2.845299 0.710676
v 1.999298 0.219593 0.929217
v 2.140743 3.417240 1.382094
v 2.012351 3.381279 2.008111
v 14.287170 -7.435766 1.666742
v 14.338202 -7.422029 1.629813
v 14.716054 -7.808937 1.916367
v 14.743483 -7.808937 1.796565
v 12.820116 -7.808938 0.825702
v 10.011425 -7.780045 -0.942391
v 10.397985 -7.890536 -2.362525
v 4.180144 -7.855122 -2.155077
v 13.426787 -7.890536 -0.296954
v 4.180144 -2.659961 -1.496038
v 10.397985 -2.659962 -2.378345
v 13.426788 -2.659962 -0.300908
v -3.945114 -2.840519 1.612727
v -3.945114 -2.840519 1.999786
v 3.710862 -9.408880 1.519017
v -2.561712 -9.408880 1.519017
v 10.432257 -7.890536 -2.573634
v 4.214415 -7.855122 -2.280425
v 13.461058 -7.890536 -0.464768
v 4.214416 -2.659961 -1.704837
v 10.432257 -2.659962 -2.588548
v 13.461059 -2.659962 -0.468397
v -0.645926 1.733405 1.223280
v -1.364576 0.325030 0.941225
v -0.671552 1.864878 0.632097
v -1.390203 0.456503 0.350043
v 1.799506 0.678274 0.261092
v 1.825132 0.546802 0.852275
v 1.106482 -0.861574 0.570220
v 1.080854 -0.730101 -0.020962
v 2.749912 0.221888 0.190086
v 2.775539 0.090415 0.709580
v 2.056889 -1.317959 0.427525
v 2.031262 -1.186487 -0.163656
v 3.510238 -0.143221 0.253003
v 3.535865 -0.274694 0.616225
v 2.817216 -1.683068 0.316546
v 2.791588 -1.551596 -0.225313
v 0.723940 -3.930205 -0.095628
v 0.698313 -3.798733 -0.686810
v 1.484265 -4.295315 -0.209784
v 1.458639 -4.163842 -0.800966
v 2.161169 -5.398038 -0.428856
v 2.732413 -8.981916 0.006791
v -3.118004 -6.017685 1.395912
v -2.546759 -9.601564 1.831559
v -3.270613 -6.099039 0.926772
v 2.008557 -5.479392 -0.897995
v 2.579802 -9.063271 -0.462348
v -2.699371 -9.682917 1.362420
vt 0.647131 0.921896
vt 0.650096 0.911269
vt 0.653867 0.911294
vt 0.649801 0.924051
vt 0.994767 0.964614
vt 0.991988 0.833546
vt 0.989700 0.833555
vt 0.992479 0.964643
vt 0.992969 0.178132
vt 0.994767 0.047067
vt 0.990682 0.178080
vt 0.874047 0.194625
vt 0.871782 0.020777
vt 0.876446 0.020734
vt 0.878711 0.194582
vt 0.651080 0.632711
vt 0.643016 0.608506
vt 0.644861 0.608501
vt 0.659254 0.624471
vt 0.653536 0.632746
vt 0.656149 0.783361
vt 0.656503 0.656039
vt 0.658725 0.656065
vt 0.678159 0.707653
vt 0.707068 0.784391
vt 0.643710 0.502826
vt 0.642910 0.387203
vt 0.690199 0.502315
vt 0.665620 0.565786
vt 0.988066 0.702453
vt 0.988720 0.571362
vt 0.991007 0.571374
vt 0.990354 0.702464
vt 0.988230 0.440256
vt 0.990027 0.309181
vt 0.992315 0.309212
vt 0.990517 0.440287
vt 0.983287 0.173613
vt 0.982759 0.331709
vt 0.970641 0.331669
vt 0.971170 0.173572
vt 0.712159 0.784495
vt 0.658666 0.910759
vt 0.663817 0.656167
vt 0.683250 0.707755
vt 0.919933 0.647609
vt 0.941948 0.777059
vt 0.895684 0.772960
vt 0.905962 0.647360
vt 0.943926 0.982527
vt 0.883884 0.910316
vt 0.928696 0.193823
vt 0.943926 0.317414
vt 0.897545 0.319859
vt 0.891751 0.193973
vt 0.917307 0.445995
vt 0.903336 0.445746
vt 0.918313 0.523236
vt 0.904342 0.522987
vt 0.616055 0.827560
vt 0.593293 0.971977
vt 0.592780 0.834781
vt 0.929101 0.116577
vt 0.892156 0.116726
vt 0.532888 0.110416
vt 0.473374 0.110504
vt 0.474230 0.028768
vt 0.528535 0.028215
vt 0.472796 0.406966
vt 0.547235 0.406963
vt 0.563930 0.420737
vt 0.482048 0.420739
vt 0.472768 0.745412
vt 0.361793 0.745073
vt 0.361570 0.731282
vt 0.482046 0.731640
vt 0.673364 0.964785
vt 0.667018 0.971839
vt 0.666756 0.612171
vt 0.666212 0.624493
vt 0.660730 0.632871
vt 0.667004 0.656174
vt 0.562070 0.424885
vt 0.480187 0.424888
vt 0.359682 0.727144
vt 0.480169 0.727493
vt 0.195052 0.702082
vt 0.195051 0.498362
vt 0.199340 0.496848
vt 0.199340 0.700568
vt 0.566646 0.715161
vt 0.566647 0.727459
vt 0.562102 0.727459
vt 0.562100 0.715162
vt 0.583329 0.438638
vt 0.583335 0.544024
vt 0.566623 0.544025
vt 0.566616 0.424885
vt 0.318500 0.725482
vt 0.213096 0.725482
vt 0.199340 0.705116
vt 0.318500 0.705116
vt 0.583352 0.702331
vt 0.583352 0.713710
vt 0.181277 0.681729
vt 0.181276 0.496529
vt 0.318500 0.496848
vt 0.318500 0.700568
vt 0.480191 0.544027
vt 0.358390 0.544031
vt 0.358386 0.424892
vt 0.562077 0.544026
vt 0.288631 0.029348
vt 0.288631 0.370366
vt 0.031283 0.370366
vt 0.031283 0.029348
vt 0.448202 0.188833
vt 0.451288 0.313093
vt 0.413403 0.314034
vt 0.410317 0.189774
vt 0.408401 0.112604
vt 0.367798 0.032464
vt 0.966837 0.770923
vt 0.969290 0.664571
vt 0.981855 0.664668
vt 0.982616 0.767568
vt 0.983055 0.825296
vt 0.983751 0.967521
vt 0.963840 0.825262
vt 0.656176 0.093802
vt 0.480186 0.715173
vt 0.563968 0.731616
vt 0.360247 0.420744
vt 0.547245 0.745421
vt 0.362069 0.406970
vt 0.649090 0.608457
vt 0.154905 0.693425
vt 0.033083 0.693424
vt 0.027311 0.687262
vt 0.156278 0.687263
vt 0.029982 0.979078
vt 0.031132 0.775359
vt 0.035825 0.763679
vt 0.034608 0.979346
vt 0.811212 0.195186
vt 0.809666 0.022118
vt 0.798193 0.389288
vt 0.845626 0.504865
vt 0.782791 0.505426
vt 0.735358 0.389849
vt 0.407187 0.834781
vt 0.407927 0.974904
vt 0.533320 0.187573
vt 0.359617 0.713822
vt 0.452598 0.570561
vt 0.452598 0.696008
vt 0.364379 0.695279
vt 0.363318 0.570558
vt 0.799016 0.794060
vt 0.736618 0.795129
vt 0.784348 0.679674
vt 0.847195 0.680399
vt 0.354616 0.713379
vt 0.355127 0.727157
vt 0.878711 0.987480
vt 0.874050 0.987618
vt 0.804143 0.793689
vt 0.811964 0.989992
vt 0.027311 0.498536
vt 0.156279 0.498536
vt 0.158047 0.502957
vt 0.029080 0.502957
vt 0.029080 0.682841
vt 0.158047 0.682841
vt 0.033083 0.494111
vt 0.154905 0.494111
vt 0.018285 0.676936
vt 0.018284 0.507018
vt 0.024318 0.502957
vt 0.024318 0.682841
vt 0.229634 0.775434
vt 0.229634 0.979152
vt 0.223325 0.979371
vt 0.223324 0.763704
vt 0.044230 0.748774
vt 0.212997 0.748773
vt 0.218902 0.760711
vt 0.040238 0.760711
vt 0.982193 0.500892
vt 0.972438 0.500860
vt 0.656176 0.326628
vt 0.520890 0.359745
vt 0.362918 0.357798
vt 0.983751 0.034763
vt 0.039021 0.981140
vt 0.040238 0.765473
vt 0.218902 0.765473
vt 0.218903 0.981139
vt 0.593134 0.983280
vt 0.361789 0.356461
vt 0.323326 0.191814
vt 0.365671 0.033758
vt 0.645149 0.273397
vt 0.635003 0.273397
vt 0.635003 0.246514
vt 0.645149 0.246514
vt 0.678230 0.180643
vt 0.678230 0.153761
vt 0.696038 0.153761
vt 0.696038 0.180643
vt 0.631114 0.235244
vt 0.631114 0.208361
vt 0.677413 0.208361
vt 0.677413 0.235243
vt 0.631931 0.180643
vt 0.631931 0.153761
vt 0.618787 0.263669
vt 0.608642 0.263669
vt 0.608642 0.217370
vt 0.618787 0.217370
vt 0.631931 0.190789
vt 0.678230 0.190788
vt 0.618787 0.199562
vt 0.608642 0.199562
vt 0.608642 0.149701
vt 0.618787 0.149701
vt 0.696038 0.190788
vt 0.695221 0.208361
vt 0.695221 0.235243
vt 0.724722 0.286267
vt 0.724722 0.259385
vt 0.734868 0.259385
vt 0.734868 0.286267
vt 0.710284 0.180643
vt 0.710284 0.190789
vt 0.709467 0.208361
vt 0.709467 0.235243
vt 0.710284 0.153761
vt 0.679537 0.274130
vt 0.669392 0.274130
vt 0.669392 0.259884
vt 0.679537 0.259884
vt 0.696038 0.103900
vt 0.710284 0.103900
vt 0.709467 0.285104
vt 0.695221 0.285104
vt 0.724723 0.209524
vt 0.734868 0.209524
vt 0.388035 0.931862
vt 0.298029 0.932613
vt 0.296507 0.874363
vt 0.388078 0.874273
vt 0.392161 0.803820
vt 0.392085 0.865977
vt 0.296518 0.865860
vt 0.296594 0.803703
vt 0.296604 0.795201
vt 0.392171 0.795317
vt 0.234351 0.874287
vt 0.234361 0.865785
vt 0.391743 0.923747
vn 0.0000 0.0000 1.0000
vn -0.9509 0.0475 -0.3058
vn 1.0000 0.0000 -0.0000
vn 0.0000 1.0000 0.0000
vn -0.0010 -1.0000 -0.0005
vn -0.0000 -1.0000 0.0000
vn 0.0015 0.9999 0.0109
vn -0.0311 0.9980 0.0541
vn 0.0024 -0.9999 -0.0153
vn 0.0011 -1.0000 -0.0092
vn -0.0018 0.9999 0.0115
vn -0.0022 0.9999 0.0153
vn 0.9642 0.0058 0.2651
vn 0.9637 -0.0000 0.2670
vn 0.0004 0.9998 0.0188
vn -0.9295 -0.0102 -0.3686
vn -0.1051 0.1744 -0.9791
vn -0.4649 -0.2117 0.8597
vn -0.5327 -0.0302 0.8458
vn -0.9725 -0.0082 -0.2326
vn 0.5752 0.1082 0.8108
vn 0.6075 0.0182 0.7941
vn 0.9748 0.0000 0.2232
vn -0.5954 0.0087 0.8034
vn 0.2149 0.0261 0.9763
vn -0.5354 0.0527 0.8429
vn 0.1266 -0.1699 0.9773
vn -0.1327 -0.0212 -0.9909
vn 0.5254 -0.0154 -0.8507
vn -0.9654 -0.0054 -0.2608
vn -0.0000 -0.0000 -1.0000
vn -0.1039 -0.0000 -0.9946
vn -0.0231 0.0397 -0.9989
vn -0.0104 0.1676 -0.9858
vn -0.0038 0.9995 0.0315
vn 0.5609 0.8279 -0.0055
vn 0.2846 0.1972 -0.9382
vn 0.4509 -0.0001 -0.8926
vn 0.4635 -0.0086 -0.8861
vn -0.4556 0.0634 0.8879
vn -0.5164 -0.1786 0.8375
vn 0.1082 -0.9737 -0.2006
vn -0.5328 0.3344 0.7774
vn 0.0228 -0.2543 0.9668
vn -0.9508 0.0421 -0.3069
vn -0.3759 0.0942 -0.9218
vn 0.0089 0.9996 0.0267
vn -0.0708 0.0358 -0.9968
vn 0.5342 0.0011 -0.8454
vn 0.5296 0.0022 -0.8483
vn 0.4495 -0.0076 -0.8933
vn -0.5750 -0.0037 0.8182
vn 0.5989 -0.0078 0.8008
vn 0.0053 -0.9999 -0.0159
vn -0.9650 0.0006 -0.2624
vn -0.0053 -0.9976 0.0696
vn -0.0043 -0.9999 -0.0139
vn 0.9351 0.0003 0.3544
vn -0.4940 -0.4792 0.7255
vn -0.2328 0.0011 0.9725
vn 0.1295 0.0424 0.9907
vn 0.1830 -0.1197 0.9758
vn -0.9785 -0.2061 0.0000
vn 0.1543 -0.2146 -0.9644
vn -0.0183 -0.4128 -0.9106
vn 0.2950 -0.9555 0.0000
vn 0.5724 -0.0015 -0.8199
vn -0.0939 0.0535 -0.9941
vn 0.9797 0.0001 0.2003
vn -0.9793 0.0239 -0.2009
vn -0.0057 -1.0000 -0.0012
vn 0.0035 0.9986 0.0520
vn -0.2460 -0.0217 -0.9690
vn -0.2497 0.0395 -0.9675
vn -0.9576 0.2880 0.0081
vn -0.8933 0.4290 0.1341
vn 0.0423 -0.2169 0.9753
vn -0.0423 0.2169 -0.9753
vn -0.4475 -0.8769 -0.1756
vn 0.4475 0.8769 0.1756
vn 0.4422 0.8771 0.1872
vn -0.0032 0.2217 -0.9751
vn 0.8960 -0.4103 -0.1699
vn 0.4245 0.8742 0.2358
vn 0.1108 0.2291 -0.9671
vn 0.0276 -0.2157 0.9761
vn 0.0404 -0.2166 0.9754
vn -0.0115 0.2114 -0.9773
vn 0.8936 -0.4266 -0.1394
vn 0.3052 0.1627 0.9383
vn -0.3052 -0.1627 -0.9383
vn 0.1563 -0.9805 0.1192
vn -0.1563 0.9805 -0.1192
vn -0.9394 -0.1103 0.3247
vn 0.9394 0.1103 -0.3247
usemtl Material.001
s off
f 31/1/1 20/2/1 11/3/1 25/4/1
f 31/5/1 20/6/1 8/7/1 18/8/1
f 27/9/1 7/10/1 17/11/1
f 49/12/2 48/13/2 7/14/2 42/15/2
f 29/16/3 21/17/3 10/18/3 84/19/3 23/20/3
f 28/21/4 22/22/4 9/23/4 65/24/4 26/25/4
f 27/26/5 7/27/5 24/28/5
f 21/17/6 27/26/6 24/28/6 66/29/6 10/18/6
f 20/2/4 28/21/4 26/25/4 11/3/4
f 19/30/1 5/31/1 22/32/1 28/33/1
f 22/22/1 29/16/1 23/20/1 9/23/1
f 16/34/1 6/35/1 21/36/1 29/37/1
f 68/38/6 34/39/6 99/40/6 98/41/6
f 11/3/7 26/25/7 37/42/7 36/43/7
f 65/24/8 9/23/8 38/44/8 67/45/8
f 21/36/1 27/9/1 17/11/1 6/35/1
f 1/46/9 13/47/9 27/48/9 21/49/9
f 13/47/10 2/50/10 7/51/10 27/48/10
f 20/6/1 28/33/1 19/30/1 8/7/1
f 4/52/11 15/53/11 28/54/11 20/55/11
f 15/53/12 3/56/12 22/57/12 28/54/12
f 22/32/1 29/37/1 16/34/1 5/31/1
f 3/56/13 12/58/13 29/59/13 22/57/13
f 12/58/14 1/46/14 21/49/14 29/59/14
f 14/60/15 31/1/15 42/61/15 80/62/15
f 14/63/16 4/52/16 20/55/16 31/64/16
f 4/65/17 81/66/17 82/67/17 61/68/17
f 67/69/18 38/70/18 45/71/18 69/72/18
f 66/73/19 24/74/19 41/75/19 70/76/19
f 25/4/20 11/3/20 36/77/20 35/78/20
f 84/19/21 10/18/21 33/79/21 85/80/21
f 9/23/22 23/20/22 32/81/22 38/82/22
f 69/72/4 45/71/4 52/83/4 71/84/4
f 70/76/6 41/75/6 47/85/6 72/86/6
f 43/87/4 44/88/4 51/89/4 50/90/4
f 86/91/23 40/92/23 46/93/23 87/94/23
f 38/95/24 32/96/24 30/97/24 45/98/24
f 35/99/25 36/100/25 43/101/25 42/102/25
f 85/103/26 33/104/26 40/92/26 86/91/26
f 36/105/27 37/106/27 44/88/27 43/87/27
f 53/107/28 49/108/28 50/90/28 51/89/28
f 73/109/29 53/110/29 51/111/29 71/84/29
f 45/98/23 30/97/23 39/112/23 52/83/23
f 42/102/30 43/101/30 50/90/30 49/108/30
f 54/113/31 55/114/31 57/115/31 56/116/31
f 80/117/32 2/118/32 58/119/32 60/120/32
f 81/66/33 80/117/33 60/120/33 59/121/33
f 81/66/34 59/121/34 62/122/34 82/67/34
f 82/123/35 62/124/35 64/125/35 83/126/35
f 63/127/36 15/128/36 61/129/36
f 4/65/37 61/68/37 15/130/37
f 87/94/38 88/131/38 73/109/38 39/112/38
f 39/112/39 73/109/39 71/84/39 52/83/39
f 40/132/6 70/76/6 72/86/6 46/93/6
f 44/133/4 69/72/4 71/84/4 51/111/4
f 33/134/40 66/73/40 70/76/40 40/132/40
f 37/135/41 67/69/41 69/72/41 44/133/41
f 26/25/4 65/24/4 67/45/4 37/42/4
f 10/18/42 66/29/42 33/136/42
f 78/137/43 79/138/43 95/139/43 94/140/43
f 74/141/44 75/142/44 91/143/44 90/144/44
f 48/13/45 49/12/45 77/145/45 75/146/45
f 53/147/4 73/148/4 79/149/4 78/150/4
f 49/12/4 53/147/4 78/150/4 77/145/4
f 2/151/46 80/62/46 42/61/46 7/152/46
f 61/129/47 82/123/47 83/126/47 63/127/47
f 4/65/48 14/153/48 80/117/48 81/66/48
f 88/131/49 72/86/49 47/85/49 89/154/49
f 73/155/50 88/156/50 89/157/50 53/158/50
f 46/93/51 72/86/51 88/131/51 87/94/51
f 32/96/52 85/103/52 86/91/52 30/97/52
f 30/97/23 86/91/23 87/94/23 39/112/23
f 23/20/53 84/19/53 85/80/53 32/81/53
f 89/159/54 74/160/54 76/161/54 88/162/54
f 24/163/55 89/154/55 47/85/55 41/164/55
f 7/165/56 48/166/56 89/159/56 24/167/56
f 75/168/57 74/160/57 89/159/57 48/166/57
f 88/162/58 76/161/58 79/149/58 73/148/58
f 92/169/6 90/170/6 100/171/6 102/172/6
f 94/140/4 95/139/4 105/173/4 104/174/4
f 76/175/59 74/176/59 90/170/59 92/169/59
f 79/177/60 76/178/60 92/179/60 95/180/60
f 77/181/61 78/182/61 94/183/61 93/184/61
f 75/185/62 77/186/62 93/187/62 91/188/62
f 99/40/63 34/39/63 97/189/63 96/190/63
f 13/191/64 98/192/64 2/118/64
f 2/118/65 98/192/65 99/193/65 58/119/65
f 13/194/66 68/38/66 98/41/66
f 102/172/67 100/171/67 104/174/67 105/173/67
f 100/195/68 101/196/68 103/197/68 104/198/68
f 95/180/69 92/179/69 102/172/69 105/173/69
f 93/184/4 94/183/4 104/198/4 103/197/4
f 91/188/70 93/187/70 103/197/70 101/196/70
f 90/144/71 91/143/71 101/196/71 100/195/71
f 31/1/72 25/4/72 35/199/72 42/61/72
f 60/120/73 58/119/73 99/200/73 96/201/73
f 60/120/74 96/201/74 62/202/74 59/121/74
f 62/124/75 96/190/75 97/189/75 64/125/75
f 106/203/76 108/204/76 109/205/76 107/206/76
f 111/207/77 112/208/77 116/209/77 115/210/77
f 109/211/78 108/212/78 110/213/78 113/214/78
f 106/215/77 107/216/77 112/208/77 111/207/77
f 107/217/79 109/218/79 113/219/79 112/220/79
f 108/221/80 106/215/80 111/207/80 110/222/80
f 116/223/76 117/224/76 123/225/76 122/226/76
f 112/220/79 113/219/79 117/224/79 116/223/79
f 110/222/81 111/207/81 115/210/81 114/227/81
f 113/214/82 110/213/82 114/228/82 117/229/82
f 119/230/83 120/231/83 121/232/83 118/233/83
f 114/227/84 115/210/84 119/234/84 118/235/84
f 117/229/85 114/228/85 118/236/85 121/237/85
f 115/210/86 116/209/86 120/238/86 119/234/86
f 122/239/79 123/240/79 125/241/79 124/242/79
f 120/238/87 116/209/87 122/243/87 124/244/87
f 117/229/88 121/237/88 125/245/88 123/246/88
f 121/232/89 120/231/89 124/247/89 125/248/89
f 126/249/90 128/250/90 129/251/90 127/252/90
f 131/253/91 132/254/91 133/255/91 130/256/91
f 127/252/92 129/251/92 133/255/92 132/254/92
f 128/257/93 126/258/93 131/253/93 130/256/93
f 129/251/94 128/259/94 130/260/94 133/255/94
f 126/249/95 127/252/95 132/254/95 131/261/95
